<svg width="47" height="47" viewBox="0 0 47 47" fill="none" xmlns="http://www.w3.org/2000/svg">
    <path d="M2.20312 32.3126H2.9375V11.0157C2.9375 10.4314 3.16962 9.87106 3.58278 9.45789C3.99595 9.04472 4.55632 8.81261 5.14062 8.81261H25.7031V3.67198C25.7031 3.55111 25.7329 3.4321 25.7899 3.32552C25.8469 3.21893 25.9294 3.12807 26.0299 3.06098L28.233 1.59223C28.3406 1.52061 28.4651 1.47861 28.594 1.47049C28.723 1.46237 28.8518 1.4884 28.9674 1.54597L31.5252 2.82452L33.3737 1.59223C33.4944 1.51172 33.6362 1.46875 33.7812 1.46875C33.9263 1.46875 34.0681 1.51172 34.1888 1.59223L35.9844 2.79073L37.7799 1.5937C37.8904 1.51998 38.0188 1.47761 38.1515 1.4711C38.2842 1.46459 38.4161 1.49418 38.5333 1.55673C38.6505 1.61928 38.7485 1.71243 38.8169 1.82628C38.8854 1.94013 38.9216 2.07041 38.9219 2.20323V8.81261H41.8594C42.4437 8.81261 43.0041 9.04472 43.4172 9.45789C43.8304 9.87106 44.0625 10.4314 44.0625 11.0157V32.3126H44.7969C44.9916 32.3126 45.1784 32.39 45.3162 32.5277C45.4539 32.6654 45.5312 32.8522 45.5312 33.047V44.797C45.5312 44.9917 45.4539 45.1785 45.3162 45.3163C45.1784 45.454 44.9916 45.5314 44.7969 45.5314H2.20312C2.00836 45.5314 1.82156 45.454 1.68384 45.3163C1.54612 45.1785 1.46875 44.9917 1.46875 44.797V33.047C1.46875 32.8522 1.54612 32.6654 1.68384 32.5277C1.82156 32.39 2.00836 32.3126 2.20312 32.3126ZM25.7031 16.8907C25.5084 16.8907 25.3216 16.9681 25.1838 17.1058C25.0461 17.2435 24.9688 17.4303 24.9688 17.6251C24.9688 17.8199 25.0461 18.0067 25.1838 18.1444C25.3216 18.2821 25.5084 18.3595 25.7031 18.3595V16.8907ZM37.4531 3.57578L36.392 4.28298C36.2713 4.3635 36.1294 4.40647 35.9844 4.40647C35.8393 4.40647 35.6975 4.3635 35.5768 4.28298L33.7812 3.08448L31.9857 4.28152C31.878 4.35272 31.7535 4.39447 31.6247 4.40258C31.4958 4.4107 31.3671 4.38491 31.2513 4.32778L28.695 3.04923L27.1719 4.06488V18.3595H37.4531V3.57578ZM39.6562 17.6251C39.6562 17.4303 39.5789 17.2435 39.4412 17.1058C39.3034 16.9681 39.1166 16.8907 38.9219 16.8907V18.3595C39.1166 18.3595 39.3034 18.2821 39.4412 18.1444C39.5789 18.0067 39.6562 17.8199 39.6562 17.6251ZM42.5938 11.0157C42.5938 10.821 42.5164 10.6342 42.3787 10.4965C42.2409 10.3587 42.0541 10.2814 41.8594 10.2814H38.9219V15.422C39.5062 15.422 40.0666 15.6541 40.4797 16.0673C40.8929 16.4804 41.125 17.0408 41.125 17.6251C41.125 18.2094 40.8929 18.7698 40.4797 19.183C40.0666 19.5961 39.5062 19.8282 38.9219 19.8282H25.7031C25.1188 19.8282 24.5584 19.5961 24.1453 19.183C23.7321 18.7698 23.5 18.2094 23.5 17.6251C23.5 17.0408 23.7321 16.4804 24.1453 16.0673C24.5584 15.6541 25.1188 15.422 25.7031 15.422V10.2814H5.14062C4.94586 10.2814 4.75906 10.3587 4.62134 10.4965C4.48362 10.6342 4.40625 10.821 4.40625 11.0157V32.3126H42.5938V11.0157ZM2.9375 44.0626H44.0625V33.7814H2.9375V44.0626Z"
          fill="#006554"/>
    <path d="M5.14062 34.5156H41.8594C42.0541 34.5156 42.2409 34.593 42.3787 34.7307C42.5164 34.8684 42.5938 35.0552 42.5938 35.25V42.5938C42.5938 42.7885 42.5164 42.9753 42.3787 43.113C42.2409 43.2508 42.0541 43.3281 41.8594 43.3281H5.14062C4.94586 43.3281 4.75906 43.2508 4.62134 43.113C4.48362 42.9753 4.40625 42.7885 4.40625 42.5938V35.25C4.40625 35.0552 4.48362 34.8684 4.62134 34.7307C4.75906 34.593 4.94586 34.5156 5.14062 34.5156ZM5.875 41.8594H41.125V35.9844H5.875V41.8594Z"
          fill="#006554"/>
    <path d="M23.5 41.125C23.0643 41.125 22.6383 40.9958 22.276 40.7537C21.9137 40.5116 21.6313 40.1675 21.4646 39.765C21.2978 39.3624 21.2542 38.9194 21.3392 38.4921C21.4242 38.0647 21.634 37.6721 21.9422 37.364C22.2503 37.0559 22.6428 36.8461 23.0702 36.7611C23.4976 36.6761 23.9405 36.7197 24.3431 36.8865C24.7457 37.0532 25.0897 37.3356 25.3318 37.6979C25.5739 38.0602 25.7031 38.4861 25.7031 38.9219C25.7031 39.5062 25.471 40.0666 25.0578 40.4797C24.6447 40.8929 24.0843 41.125 23.5 41.125ZM23.5 38.1875C23.3548 38.1875 23.2128 38.2306 23.092 38.3113C22.9712 38.392 22.8771 38.5067 22.8215 38.6408C22.7659 38.775 22.7514 38.9227 22.7797 39.0651C22.8081 39.2076 22.878 39.3385 22.9807 39.4412C23.0834 39.5439 23.2143 39.6138 23.3567 39.6421C23.4992 39.6705 23.6468 39.6559 23.781 39.6004C23.9152 39.5448 24.0299 39.4506 24.1106 39.3299C24.1913 39.2091 24.2344 39.0671 24.2344 38.9219C24.2344 38.7271 24.157 38.5403 24.0193 38.4026C23.8816 38.2649 23.6948 38.1875 23.5 38.1875Z"
          fill="#006554"/>
    <path d="M6.60938 11.75H21.2969C21.4916 11.75 21.6784 11.8274 21.8162 11.9651C21.9539 12.1028 22.0312 12.2896 22.0312 12.4844V16.8906C22.0312 17.0854 21.9539 17.2722 21.8162 17.4099C21.6784 17.5476 21.4916 17.625 21.2969 17.625H6.60938C6.41461 17.625 6.22781 17.5476 6.09009 17.4099C5.95237 17.2722 5.875 17.0854 5.875 16.8906V12.4844C5.875 12.2896 5.95237 12.1028 6.09009 11.9651C6.22781 11.8274 6.41461 11.75 6.60938 11.75ZM7.34375 16.1562H20.5625V13.2187H7.34375V16.1562Z"
          fill="#006554"/>
    <path d="M18.3594 22.0312C17.5482 22.0312 16.8906 21.3737 16.8906 20.5625C16.8906 19.7513 17.5482 19.0938 18.3594 19.0938C19.1705 19.0938 19.8281 19.7513 19.8281 20.5625C19.8281 21.3737 19.1705 22.0312 18.3594 22.0312Z"
          fill="#006554"/>
    <path d="M13.9531 22.0312C13.142 22.0312 12.4844 21.3737 12.4844 20.5625C12.4844 19.7513 13.142 19.0938 13.9531 19.0938C14.7643 19.0938 15.4219 19.7513 15.4219 20.5625C15.4219 21.3737 14.7643 22.0312 13.9531 22.0312Z"
          fill="#006554"/>
    <path d="M9.54688 22.0312C8.73571 22.0312 8.07812 21.3737 8.07812 20.5625C8.07812 19.7513 8.73571 19.0938 9.54688 19.0938C10.358 19.0938 11.0156 19.7513 11.0156 20.5625C11.0156 21.3737 10.358 22.0312 9.54688 22.0312Z"
          fill="#006554"/>
    <path d="M18.3594 26.4375C17.5482 26.4375 16.8906 25.7799 16.8906 24.9688C16.8906 24.1576 17.5482 23.5 18.3594 23.5C19.1705 23.5 19.8281 24.1576 19.8281 24.9688C19.8281 25.7799 19.1705 26.4375 18.3594 26.4375Z"
          fill="#006554"/>
    <path d="M13.9531 26.4375C13.142 26.4375 12.4844 25.7799 12.4844 24.9688C12.4844 24.1576 13.142 23.5 13.9531 23.5C14.7643 23.5 15.4219 24.1576 15.4219 24.9688C15.4219 25.7799 14.7643 26.4375 13.9531 26.4375Z"
          fill="#006554"/>
    <path d="M9.54688 26.4375C8.73571 26.4375 8.07812 25.7799 8.07812 24.9688C8.07812 24.1576 8.73571 23.5 9.54688 23.5C10.358 23.5 11.0156 24.1576 11.0156 24.9688C11.0156 25.7799 10.358 26.4375 9.54688 26.4375Z"
          fill="#006554"/>
    <path d="M18.3594 30.8438C17.5482 30.8438 16.8906 30.1862 16.8906 29.375C16.8906 28.5638 17.5482 27.9062 18.3594 27.9062C19.1705 27.9062 19.8281 28.5638 19.8281 29.375C19.8281 30.1862 19.1705 30.8438 18.3594 30.8438Z"
          fill="#006554"/>
    <path d="M13.9531 30.8438C13.142 30.8438 12.4844 30.1862 12.4844 29.375C12.4844 28.5638 13.142 27.9062 13.9531 27.9062C14.7643 27.9062 15.4219 28.5638 15.4219 29.375C15.4219 30.1862 14.7643 30.8438 13.9531 30.8438Z"
          fill="#006554"/>
    <path d="M9.54688 30.8438C8.73571 30.8438 8.07812 30.1862 8.07812 29.375C8.07812 28.5638 8.73571 27.9062 9.54688 27.9062C10.358 27.9062 11.0156 28.5638 11.0156 29.375C11.0156 30.1862 10.358 30.8438 9.54688 30.8438Z"
          fill="#006554"/>
    <path d="M35.9844 6.60938H33.7812V8.07812H35.9844V6.60938Z" fill="#006554"/>
    <path d="M32.3125 6.60938H28.6406V8.07812H32.3125V6.60938Z" fill="#006554"/>
    <path d="M35.9844 9.54688H28.6406V11.0156H35.9844V9.54688Z" fill="#006554"/>
    <path d="M35.9844 12.4844H33.7812V13.9531H35.9844V12.4844Z" fill="#006554"/>
    <path d="M32.3125 12.4844H28.6406V13.9531H32.3125V12.4844Z" fill="#006554"/>
</svg>
